<svg width="40" height="41" viewBox="0 0 40 41" fill="none" xmlns="http://www.w3.org/2000/svg">
<path d="M17.8131 4.38439C12.3764 5.12999 7.64556 8.53799 5.23956 13.4456C4.09316 15.7948 3.56396 18.0724 3.56396 20.6864C3.56396 23.2924 4.08516 25.578 5.20796 27.8792C7.55716 32.7064 11.8952 35.954 17.3159 36.9484C18.4063 37.1488 20.8523 37.1888 22.0631 37.0284C28.7907 36.1384 34.2595 31.3272 35.9275 24.808C36.3443 23.188 36.4647 22.0576 36.4167 20.2612C36.3607 18.1524 36.0559 16.5888 35.3503 14.7764C33.1131 9.03479 28.0051 5.0896 21.8467 4.34399C20.9243 4.23199 18.7755 4.25599 17.8131 4.38439ZM21.5099 6.03599C23.3463 6.23639 25.0219 6.73359 26.6579 7.55959C29.4887 9.00279 31.7019 11.216 33.1451 14.0468C35.2859 18.2648 35.2859 23.14 33.1451 27.358C31.7019 30.1884 29.4887 32.402 26.6579 33.8452C22.4399 35.986 17.5647 35.986 13.3468 33.8452C10.5164 32.402 8.30316 30.1884 6.85956 27.358C4.25356 22.226 4.84676 16.172 8.41516 11.6012C11.5024 7.64799 16.5703 5.49079 21.5099 6.03599Z" fill="#1C1C1C"/>
<path d="M12.0316 15.1856C11.7268 15.6508 7.34882 25.2088 7.38882 25.3212C7.42082 25.4172 7.61322 25.4332 8.52762 25.4172L9.61802 25.3932L9.97882 24.6476L10.3396 23.91H12.3284H14.3172L14.622 24.5676C14.7904 24.9364 14.9828 25.2812 15.0472 25.3372C15.1436 25.4096 15.456 25.4336 16.202 25.4176C17.076 25.3936 17.2364 25.3776 17.2604 25.2652C17.2764 25.1608 12.842 15.4904 12.6016 15.1056C12.4968 14.9452 12.16 14.9932 12.0316 15.1856ZM12.8896 20.7184L13.4108 21.8652L12.3684 21.8892C11.7912 21.8972 11.302 21.8972 11.286 21.8732C11.246 21.8332 12.2484 19.588 12.3124 19.58C12.3364 19.58 12.6012 20.0932 12.8896 20.7184Z" fill="#1C1C1C"/>
<path d="M27.7404 15.1216C26.786 15.354 25.9924 15.9556 25.6156 16.7332C25.4712 17.038 25.4152 17.3024 25.3912 17.8316C25.3592 18.4492 25.3832 18.5772 25.5676 18.9944C25.688 19.2428 25.8724 19.5716 25.9924 19.724C26.3132 20.1572 27.1068 20.6864 28.1012 21.1592C28.6064 21.4 29.1276 21.6888 29.248 21.8092C29.9056 22.4348 29.8416 23.1884 29.1036 23.4692C28.6144 23.6616 28.0532 23.5412 27.1552 23.0684C26.7864 22.868 26.4176 22.7076 26.3372 22.7076C26.2328 22.7076 26.0564 22.932 25.784 23.4212C25.5596 23.806 25.3752 24.1828 25.3752 24.2552C25.3752 24.4476 25.9204 24.8728 26.49 25.1372C27.4844 25.5864 28.8556 25.7228 29.8256 25.474C31.5656 25.0168 32.616 23.3652 32.1588 21.7936C31.838 20.7112 31.2208 20.1336 29.4244 19.2596C28.1172 18.618 27.8288 18.4096 27.7244 17.9928C27.612 17.5436 28.0932 17.0144 28.6144 17.0144C28.9832 17.0224 29.8492 17.3432 30.3784 17.688C30.8276 17.976 30.8516 17.976 31.044 17.856C31.2844 17.6956 32.0304 16.5728 32.0304 16.3644C32.0304 16.188 31.5012 15.8112 30.7956 15.4824C29.8652 15.0492 28.6384 14.9048 27.7404 15.1216Z" fill="#1C1C1C"/>
<path d="M17.7972 15.2656C17.7732 15.3216 17.7652 17.6232 17.7732 20.3816L17.7972 25.3932H20.2028H22.6084L23.1296 25.1448C23.8592 24.792 24.2764 24.3992 24.5892 23.7736C24.926 23.092 24.95 22.3224 24.6692 21.7288C24.4448 21.2796 23.8352 20.6864 23.338 20.446C23.1376 20.3496 22.9692 20.2536 22.9692 20.2296C22.9692 20.1976 23.1536 20.0612 23.378 19.9088C23.8512 19.588 24.188 19.1792 24.4204 18.65C24.5568 18.3452 24.5888 18.1608 24.5568 17.704C24.5008 16.83 24.0676 16.1484 23.2816 15.6752C22.536 15.226 22.1268 15.17 19.8656 15.17C18.3104 15.1696 17.8212 15.1936 17.7972 15.2656ZM21.558 17.3668C21.9668 17.5352 22.1676 17.848 22.1676 18.3052C22.1676 18.642 22.1276 18.7464 21.8948 19.0028L21.6224 19.2996L20.8124 19.3236L20.0024 19.3556V18.3612C20.0024 17.808 20.0264 17.3348 20.0584 17.3108C20.1548 17.2064 21.2852 17.2544 21.558 17.3668ZM21.7104 21.376C22.5364 21.7128 22.6404 22.7392 21.9028 23.188C21.6944 23.3164 21.502 23.3484 20.8284 23.3484H20.0024V22.306V21.2636H20.724C21.1568 21.2636 21.558 21.312 21.7104 21.376Z" fill="#1C1C1C"/>
<path d="M4.20519 9.03519C2.28879 11.6332 1.046 14.6644 0.548798 17.976C0.372399 19.1068 0.348399 21.9692 0.500798 23.108C0.933997 26.3636 2.20879 29.6432 3.95679 32.0248L4.18119 32.3296L4.77439 31.8804C5.10319 31.64 5.39999 31.4072 5.43999 31.3672C5.47999 31.3272 5.29559 30.9664 4.99879 30.5092C3.04279 27.4944 2.10439 24.3028 2.10439 20.7024C2.11239 16.7892 3.27519 13.1888 5.52039 10.1336L5.88119 9.64439L5.54439 9.37959C5.35999 9.22719 5.05519 8.99479 4.87079 8.85039L4.53399 8.58559L4.20519 9.03519Z" fill="#1C1C1C"/>
<path d="M34.7808 9.11519L34.1232 9.64439L34.484 10.1336C37.5072 14.2392 38.5896 19.5156 37.4832 24.6716C37.05 26.6604 36.12 28.8332 34.9492 30.5816C34.7088 30.9424 34.516 31.2632 34.516 31.2952C34.516 31.3352 34.8128 31.584 35.1736 31.8484L35.8312 32.3296L36.1036 31.9448C36.6168 31.2312 37.4988 29.6756 37.9 28.7772C38.6696 27.0692 39.2312 25.0804 39.4956 23.108C39.648 21.9936 39.632 19.2028 39.4556 18.016C39.1268 15.7228 38.3732 13.3812 37.3468 11.4888C36.962 10.7752 35.9516 9.20359 35.6228 8.81039L35.4384 8.59399L34.7808 9.11519Z" fill="#1C1C1C"/>
</svg>
