<svg width="36" height="35" viewBox="0 0 36 35" fill="none" xmlns="http://www.w3.org/2000/svg">
<g clip-path="url(#clip0_12_215)">
<path d="M6.9302 3.19585C6.4409 3.3901 6.10595 3.6918 5.8781 4.15415L5.6702 4.56295V5.8632V7.1568H6.34045H7.0107V6.05115C7.0107 4.75755 7.0576 4.59025 7.4664 4.4828C7.6071 4.44255 8.445 4.40895 9.42325 4.40895C10.4018 4.40895 11.2394 4.44255 11.3801 4.4828C11.7889 4.5899 11.8358 4.75755 11.8358 6.05115V7.1568H12.506H13.1763V5.8632V4.56295L12.9684 4.15415C12.7405 3.68515 12.3986 3.38345 11.9026 3.19585C11.5943 3.0821 11.3664 3.06845 9.40295 3.06845C7.4664 3.0751 7.2116 3.08875 6.9302 3.19585Z" fill="#1C1C1C"/>
<path d="M24.0868 3.19585C23.5975 3.3901 23.2626 3.6918 23.0347 4.15415L22.8272 4.56295V5.8632V7.1568H23.4974H24.1677V6.05115C24.1677 4.75755 24.2146 4.59025 24.6234 4.4828C24.7641 4.44255 25.602 4.40895 26.5802 4.40895C27.5588 4.40895 28.3964 4.44255 28.5371 4.4828C28.9459 4.5899 28.9928 4.75755 28.9928 6.05115V7.1568H29.663H30.3333V5.8632V4.56295L30.1254 4.15415C29.8975 3.68515 29.5556 3.38345 29.0596 3.19585C28.7513 3.0821 28.5234 3.06845 26.5599 3.06845C24.623 3.0751 24.3682 3.08875 24.0868 3.19585Z" fill="#1C1C1C"/>
<path d="M3.65979 7.8736C3.28459 7.92715 2.86914 8.0612 2.56079 8.2152C2.13204 8.42975 1.49539 9.0328 1.25389 9.4619C0.818144 10.226 0.838444 9.5893 0.858394 20.0305L0.878344 29.5067L1.12649 30.03C1.54859 30.9148 2.31929 31.5511 3.29124 31.8262C3.79384 31.9669 32.2096 31.9669 32.7122 31.8262C33.6838 31.5514 34.4545 30.9148 34.877 30.03L35.1248 29.5071L35.1447 20.0308C35.158 11.5062 35.1514 10.5077 35.0509 10.1794C34.7625 9.16055 33.9719 8.3566 32.8862 7.9744C32.6048 7.87395 31.3651 7.86065 18.2026 7.85365C10.2944 7.847 3.75359 7.85365 3.65979 7.8736ZM32.5579 9.40835C32.9667 9.5424 33.3485 9.87735 33.5498 10.2795L33.7174 10.6078L33.7374 19.769C33.7507 28.8701 33.7507 28.9303 33.6166 29.2992C33.4357 29.7682 33.0468 30.1637 32.5712 30.3446C32.2026 30.4787 32.1421 30.4787 18.0014 30.4787C3.90759 30.4787 3.79349 30.4787 3.43824 30.3446C3.00249 30.177 2.62064 29.8287 2.42639 29.4129L2.28569 29.1046V19.8562V10.6078L2.45334 10.2795C2.54714 10.0986 2.73474 9.85075 2.88209 9.73C3.40499 9.28095 2.24544 9.31455 17.9744 9.3079C30.7218 9.30125 32.2831 9.31455 32.5579 9.40835Z" fill="#1C1C1C"/>
<path d="M25.5747 17.4772V18.8177H24.2009H22.8272V19.8565V20.8953H24.2009H25.5747V22.2691V23.6428H26.5799H27.5851V22.2691V20.8953H28.9589H30.3326V19.8565V18.8177H28.9589H27.5851V17.4772V16.1367H26.5799H25.5747V17.4772Z" fill="#1C1C1C"/>
<path d="M5.6702 19.8566V20.8953H9.42325H13.1763V19.8566V18.8178H9.42325H5.6702V19.8566Z" fill="#1C1C1C"/>
</g>
<defs>
<clipPath id="clip0_12_215">
<rect width="35" height="35" fill="white" transform="translate(0.5)"/>
</clipPath>
</defs>
</svg>
