<svg width="40" height="27" viewBox="0 0 40 27" fill="none" xmlns="http://www.w3.org/2000/svg">
<g clip-path="url(#clip0_12_37)">
<path d="M10.7253 1.90798V0.299988H24.3017V1.91296H20.4802V3.40646H21.0735C22.22 3.40646 23.3664 3.40646 24.5129 3.40646C25.2353 3.36562 25.9447 3.60987 26.4857 4.08573C27.0266 4.56159 27.3551 5.23028 27.3991 5.9454C27.4163 6.16363 27.4516 6.38009 27.5047 6.59258C27.5632 6.86728 27.719 7.11219 27.9441 7.28296C28.1691 7.45373 28.4485 7.53906 28.7316 7.52352H31.9296C31.9856 7.54713 32.0394 7.57545 32.0905 7.60815V10.6449H33.7549V7.60815C33.8876 7.57784 34.0219 7.55457 34.1571 7.53846C35.5248 7.53846 36.8925 7.53846 38.2602 7.53846C38.3278 7.52796 38.3969 7.53125 38.4632 7.54813C38.5295 7.565 38.5917 7.5951 38.6458 7.63659C38.6999 7.67807 38.745 7.73006 38.7781 7.78937C38.8112 7.84869 38.8318 7.91407 38.8385 7.98153C39.1301 9.22113 39.4771 10.4707 39.7637 11.6854C39.8843 12.2083 39.95 12.7422 39.9598 13.2785C39.9598 14.9711 39.9045 16.6637 39.9598 18.3563C40.0029 20.1067 39.7566 21.8522 39.2307 23.5238C39.0748 24.0814 38.9642 24.6489 38.7932 25.1965C38.7379 25.3658 38.5468 25.6147 38.4161 25.6147C36.9076 25.6446 35.3639 25.6147 33.77 25.6147V22.5132H32.0603C32.0603 23.0409 32.0603 23.5338 32.0603 24.0067C32.0608 24.701 31.7889 25.3683 31.3021 25.8679C30.8152 26.3676 30.1514 26.6605 29.4507 26.6851C24.6436 26.6851 19.8366 26.6851 15.0295 26.6851C14.6283 26.6666 14.2348 26.5691 13.8722 26.3981C13.5095 26.2271 13.185 25.9862 12.9177 25.6894C11.8617 24.6539 10.7857 23.6333 9.74481 22.5879C9.57767 22.4031 9.37065 22.2579 9.13911 22.1631C8.90757 22.0683 8.65745 22.0263 8.40729 22.0403C7.84915 22.0403 7.28095 22.0403 6.71779 22.0403C6.36274 22.0332 6.01259 21.9568 5.6874 21.8155C5.36221 21.6742 5.06837 21.4708 4.82269 21.217C4.57701 20.9631 4.38432 20.6637 4.25566 20.336C4.127 20.0083 4.0649 19.6587 4.07291 19.3072C4.07291 17.6146 4.07291 15.9219 4.07291 14.1845H1.89063V20.4223C0.799497 20.273 0.608422 20.0639 0.608422 19.0981C0.608422 17.4453 0.608422 15.7925 0.608422 14.1198C0.608422 13.9157 0.608422 13.622 0.457574 13.5174C-0.0452545 13.1341 0.00502828 12.6313 0.00502828 12.1135C0 10.7544 0 9.38541 0 8.0114C0.0348999 7.6869 0.17619 7.38265 0.402263 7.14517C0.804525 6.69214 1.28724 6.30383 1.84035 5.78609V12.4023H4.07291V10.172C4.07291 9.75381 4.07291 9.33563 4.07291 8.91745C4.06198 8.20231 4.33514 7.51151 4.83359 6.99381C5.33203 6.47612 6.01588 6.17292 6.7379 6.14951C6.91892 6.14951 7.09994 6.14951 7.28095 6.14951C8.40226 6.14951 8.47769 6.07483 8.94532 5.06423C9.14763 4.55915 9.5014 4.12756 9.95901 3.8276C10.4166 3.52764 10.9561 3.37371 11.5047 3.38654C12.5104 3.38654 13.5462 3.38654 14.6122 3.38654V1.89305L10.7253 1.90798ZM30.4111 9.18628H29.0082C27.0874 9.18628 25.9912 8.19062 25.7398 6.32873C25.6241 5.33306 25.3174 5.06423 24.2916 5.06423H11.9271C10.9214 5.06423 10.7505 5.18869 10.3532 6.11466C10.1693 6.59254 9.84888 7.00707 9.431 7.30764C9.01311 7.60821 8.51588 7.78183 8 7.80729C7.64299 7.83716 7.27593 7.80729 6.91389 7.80729C6.75655 7.79808 6.59905 7.82257 6.45213 7.8791C6.30522 7.93563 6.17235 8.02286 6.06257 8.13485C5.9528 8.24684 5.86872 8.38095 5.81605 8.52803C5.76338 8.67511 5.74337 8.83171 5.75738 8.98715C5.75738 12.3724 5.75738 15.756 5.75738 19.1379C5.73841 19.2933 5.75441 19.4509 5.80425 19.5995C5.85409 19.748 5.93652 19.8838 6.04564 19.9971C6.15475 20.1103 6.28784 20.1983 6.43535 20.2546C6.58286 20.3109 6.74113 20.3342 6.89881 20.3228C7.44186 20.3526 7.98491 20.3228 8.52797 20.3228C8.96118 20.3089 9.39241 20.3865 9.79297 20.5504C10.1935 20.7144 10.5542 20.9609 10.851 21.2736C11.9221 22.344 13.0233 23.3894 14.0993 24.4597C14.2705 24.6394 14.4782 24.7811 14.7088 24.8755C14.9393 24.9699 15.1875 25.0149 15.4368 25.0074C19.9623 25.0074 24.4877 25.0074 29.0132 25.0074C30.0189 25.0074 30.401 24.624 30.406 23.6483V20.8505H35.4645V23.9669C36.0628 23.9669 36.6009 23.9669 37.1389 23.9669C37.2175 23.9487 37.2905 23.9121 37.3517 23.8601C37.413 23.8081 37.4607 23.7423 37.4909 23.6682C37.8077 22.2593 38.3708 20.9052 38.3205 19.4117C38.2602 17.744 38.2401 16.0663 38.3205 14.3986C38.401 12.7308 37.9233 11.1726 37.516 9.59948C37.4758 9.45511 37.325 9.23606 37.2143 9.2261C36.6461 9.19126 36.0729 9.2261 35.4343 9.2261V12.2977H30.406L30.4111 9.18628Z" fill="#1C1C1C"/>
</g>
<defs>
<clipPath id="clip0_12_37">
<rect width="40" height="26.4" fill="white" transform="translate(0 0.299988)"/>
</clipPath>
</defs>
</svg>
