<svg width="36" height="35" viewBox="0 0 36 35" fill="none" xmlns="http://www.w3.org/2000/svg">
<g clip-path="url(#clip0_12_223)">
<path d="M34.8162 26.8764C34.1626 26.4984 33.3252 26.7216 32.9468 27.3761C32.0832 28.8701 30.4767 29.7979 28.7547 29.7979C27.0322 29.7979 25.4255 28.8699 24.5618 27.3761C24.3172 26.9532 23.8657 26.6927 23.3771 26.6927C22.8886 26.6927 22.437 26.9534 22.1926 27.3765C21.3297 28.8702 19.7233 29.7979 18.001 29.7979C16.279 29.7979 14.6723 28.8697 13.8078 27.3758C13.5631 26.9531 13.1112 26.6927 12.6229 26.6927C12.1343 26.6927 11.683 26.9532 11.4383 27.3761C10.5745 28.8701 8.96817 29.7979 7.24601 29.7979C5.52347 29.7979 3.91678 28.8699 3.05296 27.3761C2.67477 26.7217 1.83759 26.4988 1.18356 26.8764C0.529359 27.2548 0.305696 28.0916 0.684063 28.7458C2.03535 31.0826 4.54964 32.5346 7.24601 32.5346C9.28342 32.5346 11.217 31.7054 12.6234 30.2916C14.0302 31.7054 15.9638 32.5346 18.001 32.5346C20.0384 32.5346 21.9717 31.7058 23.3775 30.2923C24.7839 31.7056 26.7175 32.5346 28.7549 32.5346C31.4507 32.5346 33.965 31.0828 35.3163 28.7458C35.6943 28.0916 35.4704 27.2548 34.8162 26.8764Z" fill="#1C1C1C"/>
<path d="M24.5616 21.0437C24.1835 20.3891 23.3459 20.1656 22.6922 20.544C22.038 20.9222 21.8142 21.7592 22.1926 22.4134C23.5437 24.7504 26.0583 26.2022 28.7547 26.2022C31.4507 26.2022 33.9648 24.7504 35.3161 22.4134C35.6943 21.7592 35.4706 20.9222 34.8164 20.544C34.1622 20.1658 33.3252 20.3895 32.947 21.0437C32.0834 22.5374 30.477 23.4655 28.7549 23.4655C27.032 23.4657 25.4255 22.5376 24.5616 21.0437Z" fill="#1C1C1C"/>
<path d="M7.24618 26.2022C9.942 26.2022 12.4563 24.7505 13.8078 22.4136C14.1861 21.7594 13.9625 20.9223 13.3084 20.5442C12.6544 20.1662 11.8172 20.3893 11.439 21.0435C10.575 22.5374 8.96835 23.4655 7.24637 23.4655C5.52383 23.4655 3.91714 22.5374 3.05332 21.0437C2.67495 20.3893 1.83813 20.1656 1.18393 20.544C0.529719 20.9222 0.306056 21.7592 0.68424 22.4134C2.03534 24.7503 4.54964 26.2022 7.24618 26.2022Z" fill="#1C1C1C"/>
<path d="M18.0315 28.281C20.036 28.281 21.6608 26.656 21.6608 24.6513C21.6608 23.1313 20.7254 21.8312 19.3995 21.2907V18.4484H24.047C24.8028 18.4484 25.4153 17.8359 25.4153 17.0801C25.4153 16.3243 24.8028 15.7119 24.047 15.7119H19.3995V13.3828H24.047C24.8028 13.3828 25.4153 12.7703 25.4153 12.0145C25.4153 11.2587 24.8028 10.6463 24.047 10.6463H19.3995V8.31676H24.047C24.8028 8.31676 25.4153 7.70434 25.4153 6.94852C25.4153 6.19269 24.8028 5.58027 24.047 5.58027H19.3995V3.83365C19.3995 3.07783 18.7871 2.4654 18.0315 2.4654C17.2758 2.4654 16.6632 3.07783 16.6632 3.83365V21.2907C15.3371 21.8312 14.4018 23.1313 14.4018 24.6513C14.4016 26.656 16.0269 28.281 18.0315 28.281Z" fill="#1C1C1C"/>
</g>
<defs>
<clipPath id="clip0_12_223">
<rect width="35" height="35" fill="white" transform="translate(0.5)"/>
</clipPath>
</defs>
</svg>
