<svg width="36" height="36" viewBox="0 0 36 36" fill="none" xmlns="http://www.w3.org/2000/svg">
<g clip-path="url(#clip0_13_272)">
<path d="M26.9968 20.2344V15.0188L31.9762 19.9983C32.226 20.2482 32.5533 20.373 32.8807 20.373C33.208 20.373 33.5354 20.2482 33.7853 19.9983C34.2848 19.4988 34.2848 18.6889 33.7853 18.1896L26.9968 11.401V10.6303V4.51155C26.9968 2.40983 25.1606 0.700012 22.9039 0.700012H13.0962C10.8394 0.700012 9.00325 2.40983 9.00325 4.51155V10.6303V11.401L2.21478 18.1896C1.71527 18.6891 1.71527 19.499 2.21478 19.9983C2.46462 20.248 2.79205 20.373 3.11932 20.373C3.44658 20.373 3.77402 20.2482 4.02385 19.9983L9.00325 15.0188V20.2345L2.21478 27.0233C1.71527 27.5229 1.71527 28.3327 2.21495 28.8323C2.46462 29.0821 2.79205 29.2069 3.11932 29.2069C3.44658 29.2069 3.77402 29.0821 4.02385 28.8323L9.00325 23.8525V28.1126V31.8888C9.00325 33.9905 10.8394 35.7004 13.0962 35.7004H22.9039C25.1606 35.7004 26.9968 33.9905 26.9968 31.8888V28.1124V23.8523L31.9762 28.8321C32.226 29.0819 32.5533 29.2068 32.8807 29.2068C33.208 29.2068 33.5354 29.0819 33.7851 28.8321C34.2848 28.3326 34.2848 27.5229 33.7853 27.0232L26.9968 20.2344ZM24.4387 20.7647V26.8334H11.5613V20.7647C11.5613 20.7644 11.5613 20.7642 11.5613 20.7639V11.9317C11.5613 11.9312 11.5613 11.9305 11.5613 11.93V11.9094H24.4387V11.93C24.4387 11.9305 24.4387 11.9312 24.4387 11.9317V20.7639C24.4387 20.7641 24.4387 20.7644 24.4387 20.7647ZM13.0962 3.25809H22.9039C23.7359 3.25809 24.4387 3.83213 24.4387 4.51155V9.35127H11.5613V4.51155C11.5613 3.83213 12.2641 3.25809 13.0962 3.25809ZM22.9039 33.1419H13.0962C12.2641 33.1419 11.5613 32.5679 11.5613 31.8885V29.3914H24.4387V31.8886C24.4387 32.5681 23.7359 33.1419 22.9039 33.1419Z" fill="#1C1C1C"/>
</g>
<defs>
<clipPath id="clip0_13_272">
<rect width="35" height="35" fill="white" transform="translate(0.5 0.700012)"/>
</clipPath>
</defs>
</svg>
