<svg width="40" height="40" viewBox="0 0 40 40" fill="none" xmlns="http://www.w3.org/2000/svg">
<path d="M18.4988 5.77238C14.766 6.21958 11.4128 7.99638 9.122 10.7236C6.8532 13.4172 5.702 16.5352 5.702 20C5.702 26.8288 10.4408 32.596 17.2136 34.0264C17.672 34.1272 18.6776 34.2388 19.4488 34.2724C25.0036 34.5072 30.234 31.4 32.7824 26.3708C33.2852 25.3648 33.9 23.4984 34.1012 22.3472C34.1796 21.8892 34.2464 20.8272 34.2464 20C34.2464 18.234 34.1012 17.2508 33.5756 15.6412C31.8992 10.422 27.4844 6.68878 22.0192 5.86198C21.0472 5.70558 19.3372 5.67198 18.4988 5.77238ZM22.8576 8.86838C26.4564 9.79598 29.4964 12.5344 30.7368 15.9656C31.2956 17.4968 31.4408 18.3352 31.4408 20.0004C31.4408 21.6656 31.2956 22.504 30.7368 24.0352C28.714 29.6456 22.332 32.7864 16.6096 30.9868C12.7536 29.7796 9.8924 26.7732 8.8084 22.7832C8.5964 21.9784 8.552 21.576 8.552 20C8.552 17.9772 8.7196 17.1052 9.4016 15.4624C10.1168 13.73 11.8604 11.6064 13.4476 10.5112C14.7104 9.65038 16.756 8.83478 18.276 8.59998C19.46 8.42118 21.606 8.54398 22.8576 8.86838Z" fill="#1C1C1C"/>
<path d="M18.4428 16.7028V21.7884H20.0076H21.5724V16.7028V11.6176H20.0076H18.4428V16.7028Z" fill="#1C1C1C"/>
<path d="M19.1136 24.124C18.5773 24.4036 18.1861 25.1632 18.2529 25.778C18.3425 26.6272 19.158 27.3764 19.974 27.3764C20.4772 27.3764 21.2368 26.918 21.4716 26.4824C21.9188 25.6664 21.6392 24.6048 20.8792 24.1352C20.41 23.856 19.6276 23.8448 19.1136 24.124Z" fill="#1C1C1C"/>
<path d="M5.47841 6.77839C2.99721 9.56119 1.30961 12.9812 0.661211 16.6024C0.314811 18.4688 0.314811 21.52 0.650011 23.3752C1.26481 26.7504 2.78481 30.0028 4.97521 32.6292C5.36641 33.0876 5.78001 33.568 5.91401 33.68L6.16001 33.9036L7.15481 32.9088L8.14961 31.9252L7.47921 31.1876C3.53361 26.8624 2.19241 20.3352 4.08121 14.6912C4.79641 12.5564 6.05961 10.366 7.47881 8.81239L8.14921 8.07479L7.17681 7.11359C6.64041 6.57719 6.17081 6.14119 6.12601 6.14119C6.09321 6.14119 5.79121 6.43199 5.47841 6.77839Z" fill="#1C1C1C"/>
<path d="M32.8384 7.11359L31.8772 8.09719L32.5364 8.82359C34.5372 10.992 36.0348 14.11 36.5712 17.2508C36.7612 18.3908 36.7836 18.8936 36.7388 20.5032C36.6716 22.5372 36.4816 23.7108 35.9452 25.3092C35.2524 27.3768 33.9112 29.6792 32.5364 31.188L31.8656 31.9256L32.8604 32.9092L33.8552 33.904L34.1008 33.6804C34.2348 33.5688 34.6484 33.088 35.0396 32.6296C37.23 30.0032 38.7504 26.7508 39.3648 23.3756C39.544 22.3472 39.6 21.6204 39.6 20C39.6 18.3796 39.544 17.6528 39.3652 16.6248C38.728 13.1488 37.13 9.79599 34.85 7.15839C34.4028 6.63319 33.9784 6.19719 33.9224 6.17479C33.8552 6.15239 33.3748 6.57719 32.8384 7.11359Z" fill="#1C1C1C"/>
</svg>
