<svg width="34" height="34" viewBox="0 0 34 34" fill="none" xmlns="http://www.w3.org/2000/svg">
<g clip-path="url(#clip0_12_41)">
<path d="M21.1026 1.8285C20.9835 1.17502 20.4142 0.70013 19.7499 0.70013C9.16445 0.70013 0.5 8.03169 0.5 17.2C0.5 26.3684 9.16445 33.6999 19.7499 33.6999C20.4142 33.6999 20.9835 33.225 21.1026 32.5716L21.2415 31.8098C22.9188 21.9397 22.9195 12.0528 21.2426 2.59678L21.1026 1.8285ZM18.6028 30.9172C9.98557 30.4244 3.25001 24.4207 3.25001 17.2C3.25001 9.97842 9.98719 3.97426 18.6058 3.48262C20.1328 12.3642 20.132 21.6485 18.6028 30.9172Z" fill="#1C1C1C"/>
<path d="M24.5424 10.1291L31.4174 14.2541C32.0686 14.6448 32.9131 14.4337 33.3039 13.7825C33.6946 13.1313 33.4834 12.2867 32.8323 11.896L25.9573 7.77106C25.3061 7.38035 24.4615 7.5915 24.0708 8.24266C23.6801 8.89383 23.8912 9.73842 24.5424 10.1291Z" fill="#1C1C1C"/>
<path d="M32.8323 20.1459L25.9573 16.0209C25.3061 15.6302 24.4615 15.8414 24.0708 16.4925C23.6801 17.1437 23.8912 17.9883 24.5424 18.379L31.4174 22.504C32.0686 22.8947 32.9131 22.6836 33.3039 22.0324C33.6946 21.3812 33.4834 20.5366 32.8323 20.1459Z" fill="#1C1C1C"/>
<path d="M32.8323 28.3959L25.9573 24.2709C25.3061 23.8802 24.4615 24.0913 24.0708 24.7425C23.6801 25.3937 23.8912 26.2383 24.5424 26.629L31.4174 30.7539C32.0686 31.1447 32.9131 30.9335 33.3039 30.2823C33.6946 29.6312 33.4834 28.7866 32.8323 28.3959Z" fill="#1C1C1C"/>
</g>
<defs>
<clipPath id="clip0_12_41">
<rect width="33" height="33" fill="white" transform="translate(0.5 0.700012)"/>
</clipPath>
</defs>
</svg>
