<svg width="36" height="35" viewBox="0 0 36 35" fill="none" xmlns="http://www.w3.org/2000/svg">
<g clip-path="url(#clip0_12_196)">
<path d="M33.9009 24.319C31.9206 23.5024 29.8436 22.8383 27.7167 22.3303C27.4038 18.4546 25.8038 14.9661 23.3277 12.8663L28.2888 7.90521C28.4095 7.78449 28.4698 7.66384 28.4698 7.48282C28.4698 7.30181 28.4094 7.18108 28.2888 7.06043L26.5991 5.37079C26.3578 5.12941 25.9957 5.12941 25.7543 5.37079L20.5063 10.6377C20.4637 10.4763 20.4439 10.3072 20.4439 10.138V9.11217C21.8922 8.26731 22.8577 6.6984 22.8577 4.9484C22.8577 4.92816 22.8564 4.9082 22.8561 4.88804C22.8564 4.86787 22.8577 4.84791 22.8577 4.82768C22.8578 2.17239 20.6854 0 18.0302 0C15.3749 0 13.2025 2.17239 13.2025 4.82761C13.2025 4.84784 13.2038 4.8678 13.2041 4.88797C13.2038 4.90813 13.2025 4.9281 13.2025 4.94833C13.2025 6.63797 14.1681 8.26731 15.6163 9.1121V10.138C15.6163 10.8017 15.1939 11.4656 14.5301 11.7673C11.1362 13.4643 8.76383 17.5444 8.40303 22.2469C6.1832 22.7796 4.06673 23.5049 2.09907 24.3794C1.91805 24.4398 1.73697 24.6208 1.73697 24.8622C1.73697 25.1035 1.79733 25.2846 1.97835 25.4053L4.39212 27.0346C4.57313 27.1553 4.75422 27.1553 4.93523 27.0949C6.12017 26.6999 7.26629 26.354 8.38335 26.0565C8.4634 29.4524 9.11698 32.4976 10.2455 34.6984C10.3662 34.8794 10.5473 35.0001 10.7886 35.0001H13.8059C13.9869 35.0001 14.2886 34.8794 14.349 34.6984C14.4094 34.5174 14.4697 34.276 14.349 34.0949C13.6249 32.707 13.2628 30.7156 13.2025 28.2414C16.3404 27.638 19.7801 27.638 22.8576 28.2414C22.7973 30.7156 22.4352 32.707 21.7111 34.0949C21.5904 34.2759 21.5904 34.5173 21.7111 34.6984C21.8318 34.8794 22.0732 35.0001 22.2542 35.0001H25.2715C25.5128 35.0001 25.6939 34.8794 25.7542 34.6984C26.8852 32.4931 27.5392 29.4399 27.617 26.0354C28.7536 26.3376 29.9194 26.6906 31.1249 27.095C31.1852 27.1554 31.2456 27.1554 31.3059 27.1554C31.4266 27.1554 31.5473 27.095 31.6076 26.9743L34.0214 25.3451C34.2024 25.2243 34.2628 25.0433 34.2628 24.8019C34.2629 24.6207 34.0819 24.3793 33.9009 24.319ZM26.4181 22.0259C23.9435 21.5103 21.4249 21.2158 18.9376 21.1407C17.664 21.096 16.3951 21.1068 15.14 21.1747L22.4957 13.819C24.6681 15.6293 26.1164 18.6465 26.4181 22.0259ZM16.4711 8.093C16.4679 8.09074 16.4645 8.08835 16.4612 8.08616C16.3945 8.05437 16.3294 8.0204 16.2655 7.98499C15.2628 7.42075 14.5515 6.39358 14.4285 5.19812C14.4282 5.19552 14.4281 5.19292 14.4278 5.19032C14.4226 5.13878 14.4189 5.08689 14.4159 5.0348C14.4152 5.02134 14.4144 5.00794 14.4138 4.99447C14.4113 4.9391 14.4096 4.88353 14.4096 4.82754C14.4096 2.83616 16.0388 1.20682 18.0303 1.20682C20.0217 1.20682 21.651 2.83616 21.5907 4.82754C21.5907 6.21544 20.8062 7.48269 19.5389 8.08616C19.4828 8.11426 19.4338 8.14591 19.3907 8.1805C18.9701 8.35249 18.5109 8.44819 18.0303 8.44819C17.4728 8.44826 16.9439 8.3205 16.4711 8.093ZM15.0733 12.7328C16.1595 12.1896 16.8233 11.1638 16.8233 10.0172V9.50134C17.2094 9.60169 17.6138 9.65515 18.0302 9.65515C18.425 9.65515 18.8088 9.60606 19.1767 9.51556V10.0172C19.1767 10.5 19.3577 11.0431 19.5991 11.4655L9.70261 21.3621C10.2457 17.4396 12.2974 14.1207 15.0733 12.7328ZM24.9095 33.7931H23.1595C23.763 32.2241 24.0646 30.1724 24.0646 27.7586C24.0646 27.4569 23.8836 27.2155 23.5819 27.1551C20.0819 26.3707 16.0388 26.3707 12.4784 27.1551C12.1767 27.2155 11.9957 27.4569 11.9957 27.7586C11.9957 30.1724 12.2974 32.2241 12.9008 33.7931H11.1508C10.1853 31.7414 9.64218 28.9655 9.58182 25.8276C9.8232 25.7672 10.0042 25.7069 10.2456 25.6466C15.4956 24.5001 20.2025 24.5001 25.3921 25.5862C25.7542 25.6466 26.1162 25.7672 26.4783 25.8276C26.4181 28.9655 25.875 31.7414 24.9095 33.7931ZM31.2457 25.8879C26.9676 24.4888 23.1693 23.7141 19.423 23.5626C16.3059 23.4208 13.2358 23.7081 9.94399 24.4396C9.58189 24.5604 9.1595 24.6207 8.79747 24.7414C8.78769 24.7463 8.77819 24.7514 8.76862 24.7566C7.50903 25.0724 6.2156 25.4495 4.87501 25.8879L3.60776 25.043C5.29849 24.3104 7.1997 23.7357 9.11486 23.319C9.12976 23.3274 9.1446 23.3386 9.1595 23.3534C9.21986 23.293 9.28022 23.293 9.34052 23.293C9.35316 23.2804 9.36588 23.2708 9.37859 23.263C9.42624 23.253 9.47388 23.2425 9.5216 23.2328C9.64232 23.1724 9.76297 23.112 9.82334 23.0517L20.8061 12.1293C20.8649 12.0706 20.909 12.0046 20.9401 11.935L26.1768 6.69826L27.0217 7.54312L13.0217 21.5431C12.8407 21.7241 12.7803 21.9655 12.9009 22.2069C13.0217 22.4483 13.263 22.569 13.5044 22.569C13.5124 22.5682 13.5203 22.5675 13.5281 22.5667C13.5404 22.5673 13.5525 22.569 13.5648 22.569C16.1802 22.3182 18.8807 22.3014 21.5526 22.5438C23.1179 22.6921 24.677 22.9272 26.2161 23.2465C26.4654 23.2999 26.7139 23.3554 26.9614 23.4138C26.9708 23.4138 26.9785 23.4138 26.9854 23.4138C28.8493 23.8362 30.6804 24.3808 32.4528 25.0432L31.2457 25.8879Z" fill="#1C1C1C"/>
</g>
<defs>
<clipPath id="clip0_12_196">
<rect width="35" height="35" fill="white" transform="translate(0.5)"/>
</clipPath>
</defs>
</svg>
