<svg width="72" height="24" viewBox="0 0 72 24" fill="none" xmlns="http://www.w3.org/2000/svg">
<path d="M54.9033 12L52.9033 10L50.9033 12L52.9033 14L54.9033 12ZM65.6133 7.71L59.9033 2H58.9033V9.59L54.3133 5L52.9033 6.41L58.4933 12L52.9033 17.59L54.3133 19L58.9033 14.41V22H59.9033L65.6133 16.29L61.3133 12L65.6133 7.71ZM60.9033 5.83L62.7833 7.71L60.9033 9.59V5.83ZM62.7833 16.29L60.9033 18.17V14.41L62.7833 16.29ZM66.9033 10L64.9033 12L66.9033 14L68.9033 12L66.9033 10Z" fill="#A6A6A6"/>
<path d="M19.4033 4C20.2333 4 20.9033 4.67 20.9033 5.5V18.5C20.9033 19.33 20.2333 20 19.4033 20C18.5733 20 17.9033 19.33 17.9033 18.5V5.5C17.9033 4.67 18.5733 4 19.4033 4ZM7.40332 14C8.23332 14 8.90332 14.67 8.90332 15.5V18.5C8.90332 19.33 8.23332 20 7.40332 20C6.57332 20 5.90332 19.33 5.90332 18.5V15.5C5.90332 14.67 6.57332 14 7.40332 14ZM13.4033 9C14.2333 9 14.9033 9.67 14.9033 10.5V18.5C14.9033 19.33 14.2333 20 13.4033 20C12.5733 20 11.9033 19.33 11.9033 18.5V10.5C11.9033 9.67 12.5733 9 13.4033 9Z" fill="#A6A6A6"/>
</svg>
