<svg width="40" height="40" viewBox="0 0 40 40" fill="none" xmlns="http://www.w3.org/2000/svg">
<g clip-path="url(#clip0_12_64)">
<path d="M29.75 11.4253C24.9114 11.4253 20.975 15.3617 20.975 20.2003C20.975 25.0389 24.9114 28.9753 29.75 28.9753C30.827 28.9753 31.7 28.1024 31.7 27.0253V13.3753C31.7 12.2983 30.827 11.4253 29.75 11.4253ZM29.75 27.0253C25.9806 27.0253 22.925 23.9697 22.925 20.2003C22.925 16.431 25.9806 13.3753 29.75 13.3753V27.0253Z" fill="#1C1C1C"/>
<path d="M10.25 11.4253C9.17292 11.4253 8.29999 12.2983 8.29999 13.3753V27.0253C8.29999 28.1024 9.17292 28.9753 10.25 28.9753C15.0886 28.9753 19.025 25.0389 19.025 20.2003C19.025 15.3617 15.0886 11.4253 10.25 11.4253ZM10.25 27.0253V13.3753C14.0194 13.3753 17.075 16.431 17.075 20.2003C17.075 23.9697 14.0194 27.0253 10.25 27.0253Z" fill="#1C1C1C"/>
<path d="M38.525 19.2253H34.625C34.0862 19.2253 33.65 19.6615 33.65 20.2003C33.65 20.7392 34.0862 21.1753 34.625 21.1753H38.525C39.0639 21.1753 39.5 20.7392 39.5 20.2003C39.5 19.6615 39.0639 19.2253 38.525 19.2253Z" fill="#1C1C1C"/>
<path d="M38.2397 7.81134C37.8587 7.4304 37.2419 7.4304 36.861 7.81134L33.936 10.7363C33.5551 11.1172 33.5551 11.7341 33.936 12.115C34.1259 12.3054 34.3754 12.4003 34.625 12.4003C34.8746 12.4003 35.1242 12.3054 35.3147 12.115L38.2397 9.18997C38.6205 8.80911 38.6205 8.1922 38.2397 7.81134Z" fill="#1C1C1C"/>
<path d="M38.239 31.2107L35.3147 28.2857C35.1243 28.0952 34.8746 28.0003 34.625 28.0003C34.3754 28.0003 34.1258 28.0952 33.9354 28.2857C33.5544 28.6666 33.5544 29.2834 33.9354 29.6643L36.8604 32.5893C37.2413 32.9702 37.8581 32.9702 38.239 32.5893C38.6199 32.2084 38.6199 31.5916 38.239 31.2107Z" fill="#1C1C1C"/>
<path d="M5.375 19.2253H1.475C0.93616 19.2253 0.5 19.6615 0.5 20.2003C0.5 20.7392 0.93616 21.1753 1.475 21.1753H5.375C5.91384 21.1753 6.35 20.7392 6.35 20.2003C6.35 19.6615 5.91384 19.2253 5.375 19.2253Z" fill="#1C1C1C"/>
<path d="M6.06468 10.7363L3.13968 7.81065C2.75874 7.42971 2.1419 7.42971 1.76104 7.81065C1.38011 8.19159 1.38011 8.80843 1.76104 9.18928L4.68604 12.1143C4.87587 12.3054 5.12548 12.4003 5.37502 12.4003C5.62456 12.4003 5.87425 12.3054 6.06468 12.115C6.44554 11.7341 6.44554 11.1172 6.06468 10.7363Z" fill="#1C1C1C"/>
<path d="M6.06395 28.2857C5.87413 28.0952 5.62451 28.0003 5.37497 28.0003C5.12543 28.0003 4.87574 28.0952 4.68531 28.2857L1.76031 31.2107C1.37938 31.5916 1.37938 32.2084 1.76031 32.5893C2.14125 32.9702 2.75809 32.9702 3.13895 32.5893L6.06395 29.6643C6.44488 29.2834 6.44488 28.6666 6.06395 28.2857Z" fill="#1C1C1C"/>
</g>
<defs>
<clipPath id="clip0_12_64">
<rect width="39" height="39" fill="white" transform="translate(0.5 0.700012)"/>
</clipPath>
</defs>
</svg>
