<svg width="36" height="35" viewBox="0 0 36 35" fill="none" xmlns="http://www.w3.org/2000/svg">
<g clip-path="url(#clip0_13_244)">
<path d="M35.2896 30.8957L19.0671 2.7975C18.8466 2.41577 18.4394 2.18048 17.9984 2.18048C17.5575 2.18048 17.1502 2.41577 16.9298 2.7975L0.665362 30.9685C0.444879 31.3502 0.444879 31.8208 0.665362 32.2025C0.885845 32.5842 1.29324 32.8195 1.73405 32.8195H34.2627C34.2638 32.8195 34.2651 32.8195 34.266 32.8195C34.9476 32.8195 35.5 32.2672 35.5 31.5855C35.5 31.33 35.4223 31.0927 35.2896 30.8957ZM3.87141 30.3514L17.9983 5.88262L32.1251 30.3514H3.87141Z" fill="#1C1C1C"/>
<path d="M16.9297 11.0332L7.78102 26.8792C7.56054 27.2609 7.56054 27.7315 7.78102 28.1132C8.00151 28.4949 8.40874 28.7302 8.84971 28.7302H27.147C27.1483 28.7304 27.1495 28.7304 27.1503 28.7302C27.832 28.7302 28.3843 28.1779 28.3843 27.4962C28.3843 27.2407 28.3067 27.0034 28.1739 26.8064L19.0671 11.0332C18.8466 10.6515 18.4394 10.4162 17.9984 10.4162C17.5575 10.4162 17.1501 10.6513 16.9297 11.0332ZM25.0096 26.2621H10.9871L17.9983 14.1181L25.0096 26.2621Z" fill="#1C1C1C"/>
</g>
<defs>
<clipPath id="clip0_13_244">
<rect width="35" height="35" fill="white" transform="translate(0.5)"/>
</clipPath>
</defs>
</svg>
